<svg width="42" height="44" viewBox="0 0 42 44" fill="none" xmlns="http://www.w3.org/2000/svg">
<path d="M17 7C17 9.20914 18.7909 11 21 11C23.2091 11 25 9.20914 25 7C25 4.79086 23.2091 3 21 3C18.7909 3 17 4.79086 17 7Z" fill="#F4EBDC"/>
<path d="M28 21C28 17.134 24.866 14 21 14C17.134 14 14 17.134 14 21M21 11C18.7909 11 17 9.20914 17 7C17 4.79086 18.7909 3 21 3C23.2091 3 25 4.79086 25 7C25 9.20914 23.2091 11 21 11Z" stroke="#F4EBDC" stroke-width="2" stroke-linecap="round" stroke-linejoin="round"/>
<path d="M0.574982 39V28.8182H4.59203C5.36428 28.8182 6.02219 28.9657 6.56575 29.2607C7.10931 29.5523 7.52361 29.9583 7.80865 30.4787C8.097 30.9957 8.24118 31.5923 8.24118 32.2685C8.24118 32.9446 8.09534 33.5412 7.80368 34.0582C7.51201 34.5753 7.08942 34.978 6.53592 35.2663C5.98573 35.5547 5.31954 35.6989 4.53734 35.6989H1.97697V33.9737H4.18933C4.60363 33.9737 4.94501 33.9025 5.21348 33.7599C5.48526 33.6141 5.68743 33.4136 5.82001 33.1584C5.9559 32.8999 6.02385 32.6032 6.02385 32.2685C6.02385 31.9304 5.9559 31.6354 5.82001 31.3835C5.68743 31.1283 5.48526 30.9311 5.21348 30.7919C4.9417 30.6494 4.597 30.5781 4.17939 30.5781H2.72768V39H0.574982ZM9.29966 39V31.3636H11.3529V32.696H11.4325C11.5717 32.2221 11.8053 31.8641 12.1335 31.6222C12.4616 31.3769 12.8394 31.2543 13.267 31.2543C13.3731 31.2543 13.4874 31.2609 13.61 31.2741C13.7327 31.2874 13.8404 31.3056 13.9332 31.3288V33.2081C13.8338 33.1783 13.6962 33.1518 13.5205 33.1286C13.3449 33.1054 13.1841 33.0938 13.0383 33.0938C12.7267 33.0938 12.4483 33.1617 12.2031 33.2976C11.9611 33.4302 11.7689 33.6158 11.6264 33.8544C11.4872 34.093 11.4176 34.3681 11.4176 34.6797V39H9.29966ZM17.823 39.1491C17.0507 39.1491 16.3829 38.9851 15.8194 38.657C15.2593 38.3255 14.8268 37.8648 14.5219 37.2749C14.2169 36.6816 14.0645 35.9938 14.0645 35.2116C14.0645 34.4228 14.2169 33.7334 14.5219 33.1435C14.8268 32.5502 15.2593 32.0895 15.8194 31.7614C16.3829 31.4299 17.0507 31.2642 17.823 31.2642C18.5952 31.2642 19.2614 31.4299 19.8216 31.7614C20.385 32.0895 20.8192 32.5502 21.1241 33.1435C21.4291 33.7334 21.5815 34.4228 21.5815 35.2116C21.5815 35.9938 21.4291 36.6816 21.1241 37.2749C20.8192 37.8648 20.385 38.3255 19.8216 38.657C19.2614 38.9851 18.5952 39.1491 17.823 39.1491ZM17.8329 37.5085C18.1843 37.5085 18.4776 37.4091 18.7129 37.2102C18.9482 37.008 19.1255 36.733 19.2449 36.3849C19.3675 36.0369 19.4288 35.6409 19.4288 35.1967C19.4288 34.7526 19.3675 34.3565 19.2449 34.0085C19.1255 33.6605 18.9482 33.3854 18.7129 33.1832C18.4776 32.9811 18.1843 32.88 17.8329 32.88C17.4783 32.88 17.18 32.9811 16.938 33.1832C16.6994 33.3854 16.5188 33.6605 16.3961 34.0085C16.2768 34.3565 16.2172 34.7526 16.2172 35.1967C16.2172 35.6409 16.2768 36.0369 16.3961 36.3849C16.5188 36.733 16.6994 37.008 16.938 37.2102C17.18 37.4091 17.4783 37.5085 17.8329 37.5085ZM26.7652 31.3636V32.9545H22.0521V31.3636H26.7652ZM23.1309 39V30.8118C23.1309 30.2583 23.2387 29.7992 23.4541 29.4347C23.6729 29.0701 23.9711 28.7966 24.349 28.6143C24.7268 28.4321 25.156 28.3409 25.6366 28.3409C25.9614 28.3409 26.2581 28.3658 26.5265 28.4155C26.7983 28.4652 27.0005 28.5099 27.1331 28.5497L26.7552 30.1406C26.6724 30.1141 26.5696 30.0893 26.447 30.0661C26.3277 30.0429 26.205 30.0312 26.0791 30.0312C25.7675 30.0312 25.5505 30.1042 25.4278 30.25C25.3052 30.3925 25.2439 30.593 25.2439 30.8516V39H23.1309ZM27.759 39V31.3636H29.8769V39H27.759ZM28.823 30.3793C28.5081 30.3793 28.238 30.2749 28.0126 30.0661C27.7905 29.8539 27.6795 29.6004 27.6795 29.3054C27.6795 29.0137 27.7905 28.7635 28.0126 28.5547C28.238 28.3426 28.5081 28.2365 28.823 28.2365C29.1378 28.2365 29.4063 28.3426 29.6284 28.5547C29.8537 28.7635 29.9664 29.0137 29.9664 29.3054C29.9664 29.6004 29.8537 29.8539 29.6284 30.0661C29.4063 30.2749 29.1378 30.3793 28.823 30.3793ZM33.3914 28.8182V39H31.2735V28.8182H33.3914ZM38.2681 39.1491C37.4825 39.1491 36.8064 38.9901 36.2396 38.6719C35.6762 38.3504 35.242 37.8963 34.9371 37.3097C34.6322 36.7197 34.4797 36.022 34.4797 35.2166C34.4797 34.4311 34.6322 33.7417 34.9371 33.1484C35.242 32.5552 35.6712 32.0928 36.2247 31.7614C36.7816 31.4299 37.4345 31.2642 38.1835 31.2642C38.6873 31.2642 39.1563 31.3454 39.5905 31.5078C40.028 31.6669 40.4092 31.9072 40.734 32.2287C41.0621 32.5502 41.3173 32.9545 41.4996 33.4418C41.6819 33.9257 41.773 34.4924 41.773 35.142V35.7237H35.3249V34.4112H39.7794C39.7794 34.1063 39.7131 33.8362 39.5806 33.6009C39.448 33.3655 39.264 33.1816 39.0287 33.049C38.7967 32.9131 38.5266 32.8452 38.2183 32.8452C37.8968 32.8452 37.6118 32.9197 37.3632 33.0689C37.118 33.2147 36.9257 33.4119 36.7865 33.6605C36.6473 33.9058 36.5761 34.1792 36.5727 34.4808V35.7287C36.5727 36.1065 36.6423 36.433 36.7816 36.7081C36.9241 36.9832 37.1246 37.1953 37.3831 37.3445C37.6416 37.4936 37.9482 37.5682 38.3029 37.5682C38.5382 37.5682 38.7536 37.535 38.9492 37.4688C39.1447 37.4025 39.3121 37.303 39.4513 37.1705C39.5905 37.0379 39.6966 36.8755 39.7695 36.6832L41.7283 36.8125C41.6289 37.2831 41.425 37.6941 41.1168 38.0455C40.8119 38.3935 40.4174 38.6652 39.9335 38.8608C39.453 39.053 38.8978 39.1491 38.2681 39.1491Z" fill="#F4EBDC"/>
</svg>
